<svg width="22" height="22" viewBox="0 0 22 22" fill="none" xmlns="http://www.w3.org/2000/svg">
<path d="M3.41421 0.585786C2.63316 -0.195262 1.36684 -0.195262 0.585786 0.585786C-0.195262 1.36684 -0.195262 2.63316 0.585786 3.41421L3.41421 0.585786ZM20 22C21.1046 22 22 21.1046 22 20L22 2C22 0.895431 21.1046 5.74219e-07 20 5.74219e-07C18.8954 5.74219e-07 18 0.895431 18 2L18 18L2 18C0.895431 18 5.74219e-07 18.8954 5.74219e-07 20C5.74219e-07 21.1046 0.895431 22 2 22L20 22ZM0.585786 3.41421L18.5858 21.4142L21.4142 18.5858L3.41421 0.585786L0.585786 3.41421Z" fill="white"/>
</svg>
