<svg width="24" height="25" viewBox="0 0 24 25" fill="none" xmlns="http://www.w3.org/2000/svg">
<path d="M10.4862 17.3398C10.355 17.34 10.2249 17.3144 10.1036 17.2643C9.98229 17.2141 9.87205 17.1406 9.77923 17.0478L5.53723 12.8048C5.44166 12.7126 5.3654 12.6023 5.31291 12.4803C5.26041 12.3584 5.23274 12.2272 5.23149 12.0944C5.23024 11.9616 5.25545 11.8299 5.30565 11.707C5.35584 11.584 5.43001 11.4723 5.52384 11.3784C5.61766 11.2844 5.72926 11.2101 5.85212 11.1597C5.97498 11.1094 6.10664 11.084 6.23942 11.085C6.3722 11.0861 6.50344 11.1136 6.62548 11.1659C6.74752 11.2182 6.85792 11.2943 6.95023 11.3898L10.4852 14.9248L16.8502 8.56176C17.0377 8.37412 17.2921 8.26865 17.5574 8.26855C17.8226 8.26846 18.0771 8.37375 18.2647 8.56126C18.4524 8.74877 18.5578 9.00313 18.5579 9.2684C18.558 9.53367 18.4527 9.78812 18.2652 9.97576L11.1932 17.0478C11.1004 17.1406 10.9902 17.2141 10.8688 17.2643C10.7475 17.3144 10.6175 17.34 10.4862 17.3398Z" fill="#2091f9"/>
</svg>
